<mxfile host="app.diagrams.net" modified="2023-12-20T11:00:11.174Z" agent="Mozilla/5.0 (Windows NT 10.0; Win64; x64) AppleWebKit/537.36 (KHTML, like Gecko) Chrome/120.0.0.0 Safari/537.36" etag="da2mMOFQw_ph3RICQ_VK" version="22.1.11" type="github">
  <diagram name="Page-1" id="2YBvvXClWsGukQMizWep">
    <mxGraphModel dx="2385" dy="1450" grid="1" gridSize="10" guides="1" tooltips="1" connect="1" arrows="1" fold="1" page="1" pageScale="1" pageWidth="850" pageHeight="1100" math="0" shadow="0">
      <root>
        <mxCell id="0" />
        <mxCell id="1" parent="0" />
        <mxCell id="aM9ryv3xv72pqoxQDRHE-1" value="Client" style="shape=umlLifeline;perimeter=lifelinePerimeter;whiteSpace=wrap;html=1;container=0;dropTarget=0;collapsible=0;recursiveResize=0;outlineConnect=0;portConstraint=eastwest;newEdgeStyle={&quot;edgeStyle&quot;:&quot;elbowEdgeStyle&quot;,&quot;elbow&quot;:&quot;vertical&quot;,&quot;curved&quot;:0,&quot;rounded&quot;:0};" parent="1" vertex="1">
          <mxGeometry x="40" y="40" width="100" height="1040" as="geometry" />
        </mxCell>
        <mxCell id="aM9ryv3xv72pqoxQDRHE-2" value="" style="html=1;points=[];perimeter=orthogonalPerimeter;outlineConnect=0;targetShapes=umlLifeline;portConstraint=eastwest;newEdgeStyle={&quot;edgeStyle&quot;:&quot;elbowEdgeStyle&quot;,&quot;elbow&quot;:&quot;vertical&quot;,&quot;curved&quot;:0,&quot;rounded&quot;:0};" parent="aM9ryv3xv72pqoxQDRHE-1" vertex="1">
          <mxGeometry x="45" y="80" width="10" height="940" as="geometry" />
        </mxCell>
        <mxCell id="aM9ryv3xv72pqoxQDRHE-5" value="Chirp.Infrastructure" style="shape=umlLifeline;perimeter=lifelinePerimeter;whiteSpace=wrap;html=1;container=0;dropTarget=0;collapsible=0;recursiveResize=0;outlineConnect=0;portConstraint=eastwest;newEdgeStyle={&quot;edgeStyle&quot;:&quot;elbowEdgeStyle&quot;,&quot;elbow&quot;:&quot;vertical&quot;,&quot;curved&quot;:0,&quot;rounded&quot;:0};" parent="1" vertex="1">
          <mxGeometry x="520" y="40" width="110" height="1040" as="geometry" />
        </mxCell>
        <mxCell id="aM9ryv3xv72pqoxQDRHE-6" value="" style="html=1;points=[];perimeter=orthogonalPerimeter;outlineConnect=0;targetShapes=umlLifeline;portConstraint=eastwest;newEdgeStyle={&quot;edgeStyle&quot;:&quot;elbowEdgeStyle&quot;,&quot;elbow&quot;:&quot;vertical&quot;,&quot;curved&quot;:0,&quot;rounded&quot;:0};" parent="aM9ryv3xv72pqoxQDRHE-5" vertex="1">
          <mxGeometry x="50" y="110" width="10" height="140" as="geometry" />
        </mxCell>
        <mxCell id="-p_lYzkQvoZtBbDQguLj-2" value="" style="html=1;points=[];perimeter=orthogonalPerimeter;outlineConnect=0;targetShapes=umlLifeline;portConstraint=eastwest;newEdgeStyle={&quot;edgeStyle&quot;:&quot;elbowEdgeStyle&quot;,&quot;elbow&quot;:&quot;vertical&quot;,&quot;curved&quot;:0,&quot;rounded&quot;:0};" vertex="1" parent="aM9ryv3xv72pqoxQDRHE-5">
          <mxGeometry x="50" y="310" width="10" height="80" as="geometry" />
        </mxCell>
        <mxCell id="-p_lYzkQvoZtBbDQguLj-6" value="" style="html=1;points=[];perimeter=orthogonalPerimeter;outlineConnect=0;targetShapes=umlLifeline;portConstraint=eastwest;newEdgeStyle={&quot;edgeStyle&quot;:&quot;elbowEdgeStyle&quot;,&quot;elbow&quot;:&quot;vertical&quot;,&quot;curved&quot;:0,&quot;rounded&quot;:0};" vertex="1" parent="aM9ryv3xv72pqoxQDRHE-5">
          <mxGeometry x="50" y="460" width="10" height="70" as="geometry" />
        </mxCell>
        <mxCell id="-p_lYzkQvoZtBbDQguLj-31" value="" style="html=1;points=[];perimeter=orthogonalPerimeter;outlineConnect=0;targetShapes=umlLifeline;portConstraint=eastwest;newEdgeStyle={&quot;edgeStyle&quot;:&quot;elbowEdgeStyle&quot;,&quot;elbow&quot;:&quot;vertical&quot;,&quot;curved&quot;:0,&quot;rounded&quot;:0};" vertex="1" parent="aM9ryv3xv72pqoxQDRHE-5">
          <mxGeometry x="50" y="720" width="10" height="60" as="geometry" />
        </mxCell>
        <mxCell id="-p_lYzkQvoZtBbDQguLj-46" value="" style="html=1;points=[];perimeter=orthogonalPerimeter;outlineConnect=0;targetShapes=umlLifeline;portConstraint=eastwest;newEdgeStyle={&quot;edgeStyle&quot;:&quot;elbowEdgeStyle&quot;,&quot;elbow&quot;:&quot;vertical&quot;,&quot;curved&quot;:0,&quot;rounded&quot;:0};" vertex="1" parent="aM9ryv3xv72pqoxQDRHE-5">
          <mxGeometry x="50" y="940" width="10" height="60" as="geometry" />
        </mxCell>
        <mxCell id="Aom1nmSDoOjfNlpoUyYE-3" value="Database" style="shape=umlLifeline;perimeter=lifelinePerimeter;whiteSpace=wrap;html=1;container=0;dropTarget=0;collapsible=0;recursiveResize=0;outlineConnect=0;portConstraint=eastwest;newEdgeStyle={&quot;edgeStyle&quot;:&quot;elbowEdgeStyle&quot;,&quot;elbow&quot;:&quot;vertical&quot;,&quot;curved&quot;:0,&quot;rounded&quot;:0};" parent="1" vertex="1">
          <mxGeometry x="860" y="40" width="100" height="1040" as="geometry" />
        </mxCell>
        <mxCell id="Aom1nmSDoOjfNlpoUyYE-4" value="" style="html=1;points=[];perimeter=orthogonalPerimeter;outlineConnect=0;targetShapes=umlLifeline;portConstraint=eastwest;newEdgeStyle={&quot;edgeStyle&quot;:&quot;elbowEdgeStyle&quot;,&quot;elbow&quot;:&quot;vertical&quot;,&quot;curved&quot;:0,&quot;rounded&quot;:0};" parent="Aom1nmSDoOjfNlpoUyYE-3" vertex="1">
          <mxGeometry x="45" y="120" width="10" height="120" as="geometry" />
        </mxCell>
        <mxCell id="-p_lYzkQvoZtBbDQguLj-12" value="" style="html=1;points=[];perimeter=orthogonalPerimeter;outlineConnect=0;targetShapes=umlLifeline;portConstraint=eastwest;newEdgeStyle={&quot;edgeStyle&quot;:&quot;elbowEdgeStyle&quot;,&quot;elbow&quot;:&quot;vertical&quot;,&quot;curved&quot;:0,&quot;rounded&quot;:0};" vertex="1" parent="Aom1nmSDoOjfNlpoUyYE-3">
          <mxGeometry x="45" y="320" width="10" height="60" as="geometry" />
        </mxCell>
        <mxCell id="-p_lYzkQvoZtBbDQguLj-17" value="" style="html=1;points=[];perimeter=orthogonalPerimeter;outlineConnect=0;targetShapes=umlLifeline;portConstraint=eastwest;newEdgeStyle={&quot;edgeStyle&quot;:&quot;elbowEdgeStyle&quot;,&quot;elbow&quot;:&quot;vertical&quot;,&quot;curved&quot;:0,&quot;rounded&quot;:0};" vertex="1" parent="Aom1nmSDoOjfNlpoUyYE-3">
          <mxGeometry x="45" y="470" width="10" height="50" as="geometry" />
        </mxCell>
        <mxCell id="-p_lYzkQvoZtBbDQguLj-53" value="" style="html=1;points=[];perimeter=orthogonalPerimeter;outlineConnect=0;targetShapes=umlLifeline;portConstraint=eastwest;newEdgeStyle={&quot;edgeStyle&quot;:&quot;elbowEdgeStyle&quot;,&quot;elbow&quot;:&quot;vertical&quot;,&quot;curved&quot;:0,&quot;rounded&quot;:0};" vertex="1" parent="Aom1nmSDoOjfNlpoUyYE-3">
          <mxGeometry x="45" y="730" width="10" height="40" as="geometry" />
        </mxCell>
        <mxCell id="-p_lYzkQvoZtBbDQguLj-60" value="" style="html=1;points=[];perimeter=orthogonalPerimeter;outlineConnect=0;targetShapes=umlLifeline;portConstraint=eastwest;newEdgeStyle={&quot;edgeStyle&quot;:&quot;elbowEdgeStyle&quot;,&quot;elbow&quot;:&quot;vertical&quot;,&quot;curved&quot;:0,&quot;rounded&quot;:0};" vertex="1" parent="Aom1nmSDoOjfNlpoUyYE-3">
          <mxGeometry x="45" y="950" width="10" height="40" as="geometry" />
        </mxCell>
        <mxCell id="Aom1nmSDoOjfNlpoUyYE-5" value="Chirp.Web" style="shape=umlLifeline;perimeter=lifelinePerimeter;whiteSpace=wrap;html=1;container=0;dropTarget=0;collapsible=0;recursiveResize=0;outlineConnect=0;portConstraint=eastwest;newEdgeStyle={&quot;edgeStyle&quot;:&quot;elbowEdgeStyle&quot;,&quot;elbow&quot;:&quot;vertical&quot;,&quot;curved&quot;:0,&quot;rounded&quot;:0};" parent="1" vertex="1">
          <mxGeometry x="220" y="40" width="100" height="1040" as="geometry" />
        </mxCell>
        <mxCell id="Aom1nmSDoOjfNlpoUyYE-6" value="" style="html=1;points=[];perimeter=orthogonalPerimeter;outlineConnect=0;targetShapes=umlLifeline;portConstraint=eastwest;newEdgeStyle={&quot;edgeStyle&quot;:&quot;elbowEdgeStyle&quot;,&quot;elbow&quot;:&quot;vertical&quot;,&quot;curved&quot;:0,&quot;rounded&quot;:0};" parent="Aom1nmSDoOjfNlpoUyYE-5" vertex="1">
          <mxGeometry x="45" y="80" width="10" height="940" as="geometry" />
        </mxCell>
        <mxCell id="Aom1nmSDoOjfNlpoUyYE-7" value="" style="endArrow=classic;html=1;rounded=0;" parent="1" target="Aom1nmSDoOjfNlpoUyYE-6" edge="1">
          <mxGeometry width="50" height="50" relative="1" as="geometry">
            <mxPoint x="90" y="120" as="sourcePoint" />
            <mxPoint x="300" y="120" as="targetPoint" />
          </mxGeometry>
        </mxCell>
        <mxCell id="Aom1nmSDoOjfNlpoUyYE-8" value="GET /" style="text;html=1;strokeColor=none;fillColor=none;align=center;verticalAlign=middle;whiteSpace=wrap;rounded=0;" parent="1" vertex="1">
          <mxGeometry x="140" y="90" width="60" height="30" as="geometry" />
        </mxCell>
        <mxCell id="Aom1nmSDoOjfNlpoUyYE-9" value="" style="endArrow=classic;html=1;rounded=0;" parent="1" source="Aom1nmSDoOjfNlpoUyYE-6" target="aM9ryv3xv72pqoxQDRHE-6" edge="1">
          <mxGeometry width="50" height="50" relative="1" as="geometry">
            <mxPoint x="280" y="150" as="sourcePoint" />
            <mxPoint x="480" y="150" as="targetPoint" />
            <Array as="points">
              <mxPoint x="390" y="150" />
            </Array>
          </mxGeometry>
        </mxCell>
        <mxCell id="Aom1nmSDoOjfNlpoUyYE-10" value="GetCheeps(int page)" style="text;html=1;strokeColor=none;fillColor=none;align=center;verticalAlign=middle;whiteSpace=wrap;rounded=0;" parent="1" vertex="1">
          <mxGeometry x="363" y="120" width="125" height="30" as="geometry" />
        </mxCell>
        <mxCell id="Aom1nmSDoOjfNlpoUyYE-12" value="ICollection&amp;lt;CheepViewModel&amp;gt;" style="text;html=1;strokeColor=none;fillColor=none;align=center;verticalAlign=middle;whiteSpace=wrap;rounded=0;" parent="1" vertex="1">
          <mxGeometry x="395.5" y="260" width="60" height="30" as="geometry" />
        </mxCell>
        <mxCell id="Aom1nmSDoOjfNlpoUyYE-14" value="" style="endArrow=classic;html=1;rounded=0;" parent="1" target="Aom1nmSDoOjfNlpoUyYE-4" edge="1">
          <mxGeometry width="50" height="50" relative="1" as="geometry">
            <mxPoint x="580" y="160" as="sourcePoint" />
            <mxPoint x="900" y="160" as="targetPoint" />
            <Array as="points">
              <mxPoint x="610" y="160" />
              <mxPoint x="640" y="160" />
            </Array>
          </mxGeometry>
        </mxCell>
        <mxCell id="Aom1nmSDoOjfNlpoUyYE-16" value="Query Cheeps" style="text;html=1;strokeColor=none;fillColor=none;align=center;verticalAlign=middle;whiteSpace=wrap;rounded=0;" parent="1" vertex="1">
          <mxGeometry x="610" y="130" width="110" height="30" as="geometry" />
        </mxCell>
        <mxCell id="Aom1nmSDoOjfNlpoUyYE-21" value="Cheeps" style="text;html=1;strokeColor=none;fillColor=none;align=center;verticalAlign=middle;whiteSpace=wrap;rounded=0;" parent="1" vertex="1">
          <mxGeometry x="635" y="250" width="60" height="30" as="geometry" />
        </mxCell>
        <mxCell id="Aom1nmSDoOjfNlpoUyYE-13" value="" style="endArrow=classic;html=1;rounded=0;" parent="1" edge="1" source="aM9ryv3xv72pqoxQDRHE-6">
          <mxGeometry width="50" height="50" relative="1" as="geometry">
            <mxPoint x="485" y="290" as="sourcePoint" />
            <mxPoint x="275" y="290" as="targetPoint" />
            <Array as="points">
              <mxPoint x="330" y="290" />
            </Array>
          </mxGeometry>
        </mxCell>
        <mxCell id="Aom1nmSDoOjfNlpoUyYE-29" value="" style="endArrow=classic;html=1;rounded=0;" parent="1" edge="1">
          <mxGeometry width="50" height="50" relative="1" as="geometry">
            <mxPoint x="275.05" y="350" as="sourcePoint" />
            <mxPoint x="570" y="350" as="targetPoint" />
          </mxGeometry>
        </mxCell>
        <mxCell id="Aom1nmSDoOjfNlpoUyYE-31" value="" style="endArrow=classic;html=1;rounded=0;" parent="1" edge="1" source="aM9ryv3xv72pqoxQDRHE-5">
          <mxGeometry width="50" height="50" relative="1" as="geometry">
            <mxPoint x="570" y="430" as="sourcePoint" />
            <mxPoint x="275" y="430" as="targetPoint" />
          </mxGeometry>
        </mxCell>
        <mxCell id="Aom1nmSDoOjfNlpoUyYE-32" value="GetPageCount()" style="text;html=1;strokeColor=none;fillColor=none;align=center;verticalAlign=middle;whiteSpace=wrap;rounded=0;" parent="1" vertex="1">
          <mxGeometry x="395" y="320" width="60" height="30" as="geometry" />
        </mxCell>
        <mxCell id="Aom1nmSDoOjfNlpoUyYE-33" value="int PageCount" style="text;html=1;strokeColor=none;fillColor=none;align=center;verticalAlign=middle;whiteSpace=wrap;rounded=0;" parent="1" vertex="1">
          <mxGeometry x="380" y="400" width="90" height="30" as="geometry" />
        </mxCell>
        <mxCell id="Aom1nmSDoOjfNlpoUyYE-34" value="" style="endArrow=classic;html=1;rounded=0;" parent="1" edge="1" target="aM9ryv3xv72pqoxQDRHE-2">
          <mxGeometry width="50" height="50" relative="1" as="geometry">
            <mxPoint x="267.25" y="1060" as="sourcePoint" />
            <mxPoint x="100" y="1060" as="targetPoint" />
          </mxGeometry>
        </mxCell>
        <mxCell id="Aom1nmSDoOjfNlpoUyYE-37" value="" style="endArrow=classic;html=1;rounded=0;" parent="1" edge="1" source="Aom1nmSDoOjfNlpoUyYE-6">
          <mxGeometry width="50" height="50" relative="1" as="geometry">
            <mxPoint x="280" y="500" as="sourcePoint" />
            <mxPoint x="570" y="500" as="targetPoint" />
            <Array as="points">
              <mxPoint x="300" y="500" />
            </Array>
          </mxGeometry>
        </mxCell>
        <mxCell id="Aom1nmSDoOjfNlpoUyYE-38" value="GetFollowersById(Guid AuthorId), for each cheep" style="text;html=1;strokeColor=none;fillColor=none;align=center;verticalAlign=middle;whiteSpace=wrap;rounded=0;" parent="1" vertex="1">
          <mxGeometry x="288" y="471" width="274" height="30" as="geometry" />
        </mxCell>
        <mxCell id="Aom1nmSDoOjfNlpoUyYE-39" value="" style="endArrow=classic;html=1;rounded=0;" parent="1" edge="1">
          <mxGeometry width="50" height="50" relative="1" as="geometry">
            <mxPoint x="574.5" y="570" as="sourcePoint" />
            <mxPoint x="275" y="570" as="targetPoint" />
          </mxGeometry>
        </mxCell>
        <mxCell id="Aom1nmSDoOjfNlpoUyYE-40" value="ICollection&amp;lt;Follow&amp;gt;, for each cheep" style="text;html=1;strokeColor=none;fillColor=none;align=center;verticalAlign=middle;whiteSpace=wrap;rounded=0;" parent="1" vertex="1">
          <mxGeometry x="280" y="535" width="220" height="30" as="geometry" />
        </mxCell>
        <mxCell id="Aom1nmSDoOjfNlpoUyYE-41" value="HTML" style="text;html=1;strokeColor=none;fillColor=none;align=center;verticalAlign=middle;whiteSpace=wrap;rounded=0;" parent="1" vertex="1">
          <mxGeometry x="150" y="1030" width="60" height="30" as="geometry" />
        </mxCell>
        <mxCell id="-p_lYzkQvoZtBbDQguLj-7" value="" style="endArrow=classic;html=1;rounded=0;" edge="1" parent="1" source="Aom1nmSDoOjfNlpoUyYE-3">
          <mxGeometry width="50" height="50" relative="1" as="geometry">
            <mxPoint x="709.5" y="280" as="sourcePoint" />
            <mxPoint x="580" y="280" as="targetPoint" />
          </mxGeometry>
        </mxCell>
        <mxCell id="-p_lYzkQvoZtBbDQguLj-13" value="" style="endArrow=classic;html=1;rounded=0;" edge="1" parent="1">
          <mxGeometry width="50" height="50" relative="1" as="geometry">
            <mxPoint x="580.0000000000001" y="360" as="sourcePoint" />
            <mxPoint x="905" y="360" as="targetPoint" />
          </mxGeometry>
        </mxCell>
        <mxCell id="-p_lYzkQvoZtBbDQguLj-14" value="" style="endArrow=classic;html=1;rounded=0;exitX=0.5;exitY=1;exitDx=0;exitDy=0;exitPerimeter=0;" edge="1" parent="1" source="-p_lYzkQvoZtBbDQguLj-12">
          <mxGeometry width="50" height="50" relative="1" as="geometry">
            <mxPoint x="740" y="420" as="sourcePoint" />
            <mxPoint x="580" y="420" as="targetPoint" />
          </mxGeometry>
        </mxCell>
        <mxCell id="-p_lYzkQvoZtBbDQguLj-15" value="Query Cheep Count" style="text;html=1;strokeColor=none;fillColor=none;align=center;verticalAlign=middle;whiteSpace=wrap;rounded=0;" vertex="1" parent="1">
          <mxGeometry x="610" y="330" width="110" height="30" as="geometry" />
        </mxCell>
        <mxCell id="-p_lYzkQvoZtBbDQguLj-16" value="Cheep Count" style="text;html=1;strokeColor=none;fillColor=none;align=center;verticalAlign=middle;whiteSpace=wrap;rounded=0;" vertex="1" parent="1">
          <mxGeometry x="627.5" y="390" width="75" height="30" as="geometry" />
        </mxCell>
        <mxCell id="-p_lYzkQvoZtBbDQguLj-18" value="" style="endArrow=classic;html=1;rounded=0;" edge="1" parent="1" target="-p_lYzkQvoZtBbDQguLj-17">
          <mxGeometry width="50" height="50" relative="1" as="geometry">
            <mxPoint x="580" y="510" as="sourcePoint" />
            <mxPoint x="900" y="510" as="targetPoint" />
          </mxGeometry>
        </mxCell>
        <mxCell id="-p_lYzkQvoZtBbDQguLj-19" value="" style="endArrow=classic;html=1;rounded=0;" edge="1" parent="1" source="-p_lYzkQvoZtBbDQguLj-17">
          <mxGeometry width="50" height="50" relative="1" as="geometry">
            <mxPoint x="740" y="560" as="sourcePoint" />
            <mxPoint x="580" y="560" as="targetPoint" />
          </mxGeometry>
        </mxCell>
        <mxCell id="-p_lYzkQvoZtBbDQguLj-20" value="Query Author&#39;s Followers" style="text;html=1;strokeColor=none;fillColor=none;align=center;verticalAlign=middle;whiteSpace=wrap;rounded=0;" vertex="1" parent="1">
          <mxGeometry x="613.75" y="480" width="102.5" height="30" as="geometry" />
        </mxCell>
        <mxCell id="-p_lYzkQvoZtBbDQguLj-21" value="Author&#39;s followers" style="text;html=1;strokeColor=none;fillColor=none;align=center;verticalAlign=middle;whiteSpace=wrap;rounded=0;" vertex="1" parent="1">
          <mxGeometry x="635" y="530" width="60" height="30" as="geometry" />
        </mxCell>
        <mxCell id="-p_lYzkQvoZtBbDQguLj-22" value="AspNetCore.Identity" style="shape=umlLifeline;perimeter=lifelinePerimeter;whiteSpace=wrap;html=1;container=0;dropTarget=0;collapsible=0;recursiveResize=0;outlineConnect=0;portConstraint=eastwest;newEdgeStyle={&quot;edgeStyle&quot;:&quot;elbowEdgeStyle&quot;,&quot;elbow&quot;:&quot;vertical&quot;,&quot;curved&quot;:0,&quot;rounded&quot;:0};" vertex="1" parent="1">
          <mxGeometry x="695" y="40" width="130" height="1040" as="geometry" />
        </mxCell>
        <mxCell id="-p_lYzkQvoZtBbDQguLj-27" value="" style="html=1;points=[];perimeter=orthogonalPerimeter;outlineConnect=0;targetShapes=umlLifeline;portConstraint=eastwest;newEdgeStyle={&quot;edgeStyle&quot;:&quot;elbowEdgeStyle&quot;,&quot;elbow&quot;:&quot;vertical&quot;,&quot;curved&quot;:0,&quot;rounded&quot;:0};" vertex="1" parent="-p_lYzkQvoZtBbDQguLj-22">
          <mxGeometry x="60" y="600" width="10" height="60" as="geometry" />
        </mxCell>
        <mxCell id="-p_lYzkQvoZtBbDQguLj-26" value="" style="endArrow=classic;html=1;rounded=0;" edge="1" parent="1" source="Aom1nmSDoOjfNlpoUyYE-6" target="-p_lYzkQvoZtBbDQguLj-27">
          <mxGeometry width="50" height="50" relative="1" as="geometry">
            <mxPoint x="290" y="640" as="sourcePoint" />
            <mxPoint x="750" y="640" as="targetPoint" />
            <Array as="points">
              <mxPoint x="660" y="640" />
              <mxPoint x="740" y="640" />
            </Array>
          </mxGeometry>
        </mxCell>
        <mxCell id="-p_lYzkQvoZtBbDQguLj-28" value="" style="endArrow=classic;html=1;rounded=0;" edge="1" parent="1" target="Aom1nmSDoOjfNlpoUyYE-6">
          <mxGeometry width="50" height="50" relative="1" as="geometry">
            <mxPoint x="760" y="700" as="sourcePoint" />
            <mxPoint x="280" y="700" as="targetPoint" />
          </mxGeometry>
        </mxCell>
        <mxCell id="-p_lYzkQvoZtBbDQguLj-29" value="IsSignedIn(ClaimsPrincipal principal)" style="text;html=1;strokeColor=none;fillColor=none;align=center;verticalAlign=middle;whiteSpace=wrap;rounded=0;" vertex="1" parent="1">
          <mxGeometry x="325" y="610" width="200" height="30" as="geometry" />
        </mxCell>
        <mxCell id="-p_lYzkQvoZtBbDQguLj-30" value="User not signed in" style="text;html=1;strokeColor=none;fillColor=none;align=center;verticalAlign=middle;whiteSpace=wrap;rounded=0;" vertex="1" parent="1">
          <mxGeometry x="325" y="670" width="200" height="30" as="geometry" />
        </mxCell>
        <mxCell id="-p_lYzkQvoZtBbDQguLj-32" value="" style="endArrow=classic;html=1;rounded=0;" edge="1" parent="1" source="Aom1nmSDoOjfNlpoUyYE-6" target="-p_lYzkQvoZtBbDQguLj-31">
          <mxGeometry width="50" height="50" relative="1" as="geometry">
            <mxPoint x="280" y="760" as="sourcePoint" />
            <mxPoint x="577.8699999999998" y="760" as="targetPoint" />
          </mxGeometry>
        </mxCell>
        <mxCell id="-p_lYzkQvoZtBbDQguLj-33" value="" style="endArrow=classic;html=1;rounded=0;" edge="1" parent="1" target="Aom1nmSDoOjfNlpoUyYE-6">
          <mxGeometry width="50" height="50" relative="1" as="geometry">
            <mxPoint x="577.9299999999997" y="820" as="sourcePoint" />
            <mxPoint x="290" y="820" as="targetPoint" />
          </mxGeometry>
        </mxCell>
        <mxCell id="-p_lYzkQvoZtBbDQguLj-34" value="HasUserReacted(Guid CheepId, &lt;br&gt;Guid AuthorId)" style="text;html=1;strokeColor=none;fillColor=none;align=center;verticalAlign=middle;whiteSpace=wrap;rounded=0;" vertex="1" parent="1">
          <mxGeometry x="320" y="730" width="230" height="30" as="geometry" />
        </mxCell>
        <mxCell id="-p_lYzkQvoZtBbDQguLj-35" value="Reaction status" style="text;html=1;strokeColor=none;fillColor=none;align=center;verticalAlign=middle;whiteSpace=wrap;rounded=0;" vertex="1" parent="1">
          <mxGeometry x="320" y="790" width="230" height="30" as="geometry" />
        </mxCell>
        <mxCell id="-p_lYzkQvoZtBbDQguLj-40" value="" style="endArrow=classic;html=1;rounded=0;" edge="1" parent="1" target="Aom1nmSDoOjfNlpoUyYE-6">
          <mxGeometry width="50" height="50" relative="1" as="geometry">
            <mxPoint x="765" y="930" as="sourcePoint" />
            <mxPoint x="280" y="930" as="targetPoint" />
          </mxGeometry>
        </mxCell>
        <mxCell id="-p_lYzkQvoZtBbDQguLj-41" value="" style="endArrow=classic;html=1;rounded=0;" edge="1" parent="1" source="Aom1nmSDoOjfNlpoUyYE-6">
          <mxGeometry width="50" height="50" relative="1" as="geometry">
            <mxPoint x="280" y="870" as="sourcePoint" />
            <mxPoint x="755" y="870" as="targetPoint" />
            <Array as="points" />
          </mxGeometry>
        </mxCell>
        <mxCell id="-p_lYzkQvoZtBbDQguLj-36" value="" style="html=1;points=[];perimeter=orthogonalPerimeter;outlineConnect=0;targetShapes=umlLifeline;portConstraint=eastwest;newEdgeStyle={&quot;edgeStyle&quot;:&quot;elbowEdgeStyle&quot;,&quot;elbow&quot;:&quot;vertical&quot;,&quot;curved&quot;:0,&quot;rounded&quot;:0};" vertex="1" parent="1">
          <mxGeometry x="755" y="870" width="10" height="60" as="geometry" />
        </mxCell>
        <mxCell id="-p_lYzkQvoZtBbDQguLj-38" value="User not signed in" style="text;html=1;strokeColor=none;fillColor=none;align=center;verticalAlign=middle;whiteSpace=wrap;rounded=0;" vertex="1" parent="1">
          <mxGeometry x="325" y="890" width="200" height="30" as="geometry" />
        </mxCell>
        <mxCell id="-p_lYzkQvoZtBbDQguLj-37" value="IsSignedIn(ClaimsPrincipal principal)" style="text;html=1;strokeColor=none;fillColor=none;align=center;verticalAlign=middle;whiteSpace=wrap;rounded=0;" vertex="1" parent="1">
          <mxGeometry x="325" y="840" width="200" height="30" as="geometry" />
        </mxCell>
        <mxCell id="-p_lYzkQvoZtBbDQguLj-47" value="" style="endArrow=classic;html=1;rounded=0;" edge="1" parent="1" source="Aom1nmSDoOjfNlpoUyYE-6" target="-p_lYzkQvoZtBbDQguLj-46">
          <mxGeometry width="50" height="50" relative="1" as="geometry">
            <mxPoint x="375" y="980" as="sourcePoint" />
            <mxPoint x="560" y="980" as="targetPoint" />
          </mxGeometry>
        </mxCell>
        <mxCell id="-p_lYzkQvoZtBbDQguLj-49" value="" style="endArrow=classic;html=1;rounded=0;" edge="1" parent="1" target="Aom1nmSDoOjfNlpoUyYE-6">
          <mxGeometry width="50" height="50" relative="1" as="geometry">
            <mxPoint x="574.5000000000002" y="1040" as="sourcePoint" />
            <mxPoint x="280" y="1040" as="targetPoint" />
          </mxGeometry>
        </mxCell>
        <mxCell id="-p_lYzkQvoZtBbDQguLj-50" value="Following status" style="text;html=1;strokeColor=none;fillColor=none;align=center;verticalAlign=middle;whiteSpace=wrap;rounded=0;" vertex="1" parent="1">
          <mxGeometry x="385" y="1010" width="100" height="30" as="geometry" />
        </mxCell>
        <mxCell id="-p_lYzkQvoZtBbDQguLj-51" value="IsFollowing(Guid FollowingUserId,&lt;br&gt;Guid followedAuthorId)" style="text;html=1;strokeColor=none;fillColor=none;align=center;verticalAlign=middle;whiteSpace=wrap;rounded=0;" vertex="1" parent="1">
          <mxGeometry x="280" y="950" width="275" height="30" as="geometry" />
        </mxCell>
        <mxCell id="-p_lYzkQvoZtBbDQguLj-54" value="" style="endArrow=classic;html=1;rounded=0;" edge="1" parent="1" source="-p_lYzkQvoZtBbDQguLj-31" target="-p_lYzkQvoZtBbDQguLj-53">
          <mxGeometry width="50" height="50" relative="1" as="geometry">
            <mxPoint x="590" y="770" as="sourcePoint" />
            <mxPoint x="900" y="770" as="targetPoint" />
            <Array as="points">
              <mxPoint x="610" y="770" />
            </Array>
          </mxGeometry>
        </mxCell>
        <mxCell id="-p_lYzkQvoZtBbDQguLj-55" value="" style="edgeStyle=elbowEdgeStyle;rounded=0;orthogonalLoop=1;jettySize=auto;html=1;elbow=vertical;curved=0;" edge="1" parent="1" source="-p_lYzkQvoZtBbDQguLj-53" target="-p_lYzkQvoZtBbDQguLj-31">
          <mxGeometry relative="1" as="geometry">
            <mxPoint x="590" y="810" as="targetPoint" />
            <Array as="points">
              <mxPoint x="840" y="810" />
            </Array>
          </mxGeometry>
        </mxCell>
        <mxCell id="-p_lYzkQvoZtBbDQguLj-56" value="Query if user has reacted" style="text;html=1;strokeColor=none;fillColor=none;align=center;verticalAlign=middle;whiteSpace=wrap;rounded=0;" vertex="1" parent="1">
          <mxGeometry x="600" y="740" width="143.75" height="30" as="geometry" />
        </mxCell>
        <mxCell id="-p_lYzkQvoZtBbDQguLj-57" value="Reaction status" style="text;html=1;strokeColor=none;fillColor=none;align=center;verticalAlign=middle;whiteSpace=wrap;rounded=0;" vertex="1" parent="1">
          <mxGeometry x="630" y="780" width="95" height="30" as="geometry" />
        </mxCell>
        <mxCell id="-p_lYzkQvoZtBbDQguLj-61" value="" style="endArrow=classic;html=1;rounded=0;" edge="1" parent="1" target="Aom1nmSDoOjfNlpoUyYE-3">
          <mxGeometry width="50" height="50" relative="1" as="geometry">
            <mxPoint x="580" y="990" as="sourcePoint" />
            <mxPoint x="650" y="930" as="targetPoint" />
            <Array as="points">
              <mxPoint x="860" y="990" />
            </Array>
          </mxGeometry>
        </mxCell>
        <mxCell id="-p_lYzkQvoZtBbDQguLj-62" value="" style="endArrow=classic;html=1;rounded=0;" edge="1" parent="1" target="-p_lYzkQvoZtBbDQguLj-46">
          <mxGeometry width="50" height="50" relative="1" as="geometry">
            <mxPoint x="909.5" y="1030" as="sourcePoint" />
            <mxPoint x="680" y="1030" as="targetPoint" />
          </mxGeometry>
        </mxCell>
        <mxCell id="-p_lYzkQvoZtBbDQguLj-63" value="Query if user is following" style="text;html=1;strokeColor=none;fillColor=none;align=center;verticalAlign=middle;whiteSpace=wrap;rounded=0;" vertex="1" parent="1">
          <mxGeometry x="603.75" y="960" width="140" height="30" as="geometry" />
        </mxCell>
        <mxCell id="-p_lYzkQvoZtBbDQguLj-64" value="Following status" style="text;html=1;strokeColor=none;fillColor=none;align=center;verticalAlign=middle;whiteSpace=wrap;rounded=0;" vertex="1" parent="1">
          <mxGeometry x="627.5" y="1000" width="97.5" height="30" as="geometry" />
        </mxCell>
      </root>
    </mxGraphModel>
  </diagram>
</mxfile>
